<?xml version="1.0" encoding="UTF-8"?>
<svg width="344pt" height="344pt" viewBox="0 0 344 344.97" xmlns="http://www.w3.org/2000/svg">
<path d="m343.08 330.44-158.81-157.95 157.98-158.85c3.1172-3.1328 3.1055-8.1992-0.027344-11.316-3.1328-3.1172-8.1992-3.1016-11.316 0.03125l-157.94 158.82-158.83-157.98c-3.1328-3.1172-8.1992-3.1055-11.316 0.027344-3.1172 3.1328-3.1055 8.1992 0.027344 11.316l158.81 157.94-157.96 158.83c-3.1172 3.1328-3.1055 8.1992 0.027344 11.316s8.1992 3.1055 11.316-0.027344l157.93-158.81 158.8 157.98c3.1328 3.1172 8.1992 3.1055 11.316-0.027344 3.1172-3.1328 3.1055-8.1992-0.027344-11.316z" fill="#1e81ce"/>
</svg>
